<svg width="249" height="253" viewBox="0 0 249 253" fill="none" xmlns="http://www.w3.org/2000/svg">
<g style="mix-blend-mode:multiply" opacity="0.2">
<path d="M390.234 121.6C372.038 112.803 358.513 96.6889 346.924 80.125C335.336 63.5611 324.965 45.8989 310.491 31.7962C286.835 8.76247 252.648 -3.05392 219.848 0.680194C187.049 4.41431 156.315 23.6989 138.867 51.7297C127.837 69.4518 121.799 90.4537 107.66 105.814C93.1363 121.59 72.0552 129.278 54.4127 141.463C12.5198 170.368 -7.60819 226.13 2.63296 275.996C12.8741 325.863 51.2983 368.056 98.731 386.507C146.164 404.958 201.148 400.485 246.878 378.16C292.609 355.835 329.127 316.582 351.885 271.049C363.04 248.724 371.085 224.882 383.252 203.086C395.42 181.291 412.663 161.032 435.935 152.037L447 116.213C432.307 130.121 408.436 130.391 390.234 121.6Z" fill="#38CB87" fill-opacity="0.35"/>
</g>
</svg>
